<svg width="1560" height="934" viewBox="0 0 1560 934" fill="none" xmlns="http://www.w3.org/2000/svg">
<path d="M852.083 577.215C841.708 587.39 824.916 587.39 814.541 577.215L608.145 374.544C592.604 359.281 567.395 359.281 551.854 374.544L486.166 439.031C470.624 454.294 470.624 479.042 486.166 494.304L805.166 807.525C820.708 822.787 845.916 822.787 861.458 807.525L1445.5 234.042C1461.06 218.779 1461.06 194.031 1445.5 178.767L1379.83 114.281C1364.29 99.0175 1339.08 99.0175 1323.54 114.281L852.083 577.215Z" fill="#FF285C"/>
<path d="M480.563 590.244C470.208 600.419 453.396 600.419 443.042 590.244L236.625 387.573C221.084 372.308 195.875 372.308 180.334 387.573L114.667 452.058C99.1045 467.323 99.1045 492.071 114.667 507.333L433.646 820.552C449.188 835.817 474.396 835.817 489.938 820.552L1074 247.071C1089.54 231.806 1089.54 207.06 1074 191.796L1008.31 127.309C992.771 112.046 967.563 112.046 952.021 127.309L480.563 590.244Z" fill="#00FF94"/>
<path d="M654.19 348.28L916.285 90.9231C916.287 90.9219 916.288 90.9207 916.289 90.9195C951.668 56.1768 1008.66 56.1756 1044.04 90.9157C1044.04 90.9181 1044.05 90.9206 1044.05 90.9231L1109.73 155.402L1109.74 155.41C1129.53 174.851 1138.41 201.07 1136.37 226.59L1287.81 77.8945C1323.19 43.1463 1380.19 43.1463 1415.57 77.8945L1481.21 142.357C1517.16 177.614 1517.16 235.196 1481.21 270.453L897.192 843.913C897.191 843.913 897.191 843.914 897.19 843.915C861.81 878.657 804.815 878.657 769.435 843.915C769.434 843.915 769.433 843.914 769.432 843.913L654.186 730.754L525.674 856.937C490.294 891.687 433.296 891.688 397.914 856.942L654.19 348.28ZM654.19 348.28L643.88 338.156C643.879 338.155 643.879 338.155 643.878 338.154C608.499 303.412 551.506 303.411 516.125 338.15C516.123 338.152 516.122 338.154 516.12 338.156L450.438 402.638L450.432 402.643C420.568 431.971 415.549 476.731 435.377 511.245L272.362 351.188C272.36 351.186 272.358 351.184 272.356 351.182C236.975 316.438 179.98 316.439 144.6 351.185C144.599 351.186 144.598 351.187 144.597 351.188L78.9547 415.649C78.9504 415.653 78.9461 415.658 78.9418 415.662C78.939 415.665 78.9362 415.667 78.9334 415.67C43.0175 450.921 43.0135 508.47 78.9346 543.723C78.9409 543.729 78.9471 543.735 78.9534 543.741C78.9547 543.743 78.9559 543.744 78.9572 543.745L397.91 856.937L654.19 348.28Z" stroke="white" stroke-width="102"/>
</svg>
