<?xml version="1.0" encoding="iso-8859-1"?>
<!-- Uploaded to: SVG Repo, www.svgrepo.com, Generator: SVG Repo Mixer Tools -->
<!DOCTYPE svg PUBLIC "-//W3C//DTD SVG 1.1//EN" "http://www.w3.org/Graphics/SVG/1.1/DTD/svg11.dtd">
<svg fill="#000000" height="800px" width="800px" version="1.1" id="Capa_1" xmlns="http://www.w3.org/2000/svg" xmlns:xlink="http://www.w3.org/1999/xlink" 
	 viewBox="0 0 264 264" xml:space="preserve">
	<g>
		<path d="M246.997,33H17.926C8.225,33,0,40.892,0,50.593v163.071C0,223.385,8.061,231,17.926,231h229.071
			c9.721,0,17.003-7.615,17.003-17.336V50.593C264,40.728,256.718,33,246.997,33z M60.226,43.025c3.554,0,6.444,2.891,6.444,6.444
			s-2.891,6.444-6.444,6.444s-6.444-2.891-6.444-6.444S56.672,43.025,60.226,43.025z M41.726,43.025c3.554,0,6.444,2.891,6.444,6.444
			s-2.891,6.444-6.444,6.444s-6.444-2.891-6.444-6.444S38.172,43.025,41.726,43.025z M23.226,43.025c3.554,0,6.444,2.891,6.444,6.444
			s-2.891,6.444-6.444,6.444s-6.444-2.891-6.444-6.444S19.672,43.025,23.226,43.025z M248,214.5c0,0.276,0.109,0.5-0.167,0.5h-0.5
			h-230.5H16v-0.5V67v-0.5c0-0.276,0.557-0.5,0.833-0.5h231c0.276,0,0.167,0.224,0.167,0.5V214.5z M241.889,56h-70
			c-3.554,0-6.444-2.91-6.444-6.487c0-3.577,2.891-6.487,6.444-6.487l70,0.022c3.554,0,6.444,2.9,6.444,6.466
			C248.333,53.09,245.442,56,241.889,56z"/>
		<g>
			<path d="M39.889,106h70c3.554,0,6.444-2.913,6.444-6.494c0-3.566-2.891-6.469-6.444-6.469l-70-0.024
				c-3.554,0-6.444,2.913-6.444,6.493C33.444,103.087,36.335,106,39.889,106z"/>
			<path d="M109.889,115.037l-70-0.024c-3.554,0-6.444,2.913-6.444,6.493c0,3.581,2.891,6.494,6.444,6.494h70
				c3.554,0,6.444-2.913,6.444-6.494C116.333,117.939,113.442,115.037,109.889,115.037z"/>
			<path d="M109.889,137.037l-70-0.024c-3.554,0-6.444,2.913-6.444,6.493c0,3.581,2.891,6.494,6.444,6.494h70
				c3.554,0,6.444-2.913,6.444-6.494C116.333,139.939,113.442,137.037,109.889,137.037z"/>
			<path d="M109.889,159.037l-70-0.024c-3.554,0-6.444,2.913-6.444,6.493c0,3.581,2.891,6.494,6.444,6.494h70
				c3.554,0,6.444-2.913,6.444-6.494C116.333,161.939,113.442,159.037,109.889,159.037z"/>
		</g>
		<path d="M218.833,91h-74C137.94,91,132,96.607,132,103.5v0.5v73.5v0.5c0,6.627,5.706,12,12.333,12h0.5h73.5h0.5
			c6.893,0,12.167-5.607,12.167-12.5v-74C231,96.607,225.726,91,218.833,91z"/>
	</g>
</svg>